<svg width="144" height="141" viewBox="0 0 144 141" fill="none" xmlns="http://www.w3.org/2000/svg">
<path d="M143.849 69.4946C143.849 108.925 111.774 141 72.3538 141C68.7206 141 65.1641 140.733 61.6758 140.209C61.4322 140.172 61.2529 139.963 61.2529 139.716V114.091C61.2529 114.087 61.2512 114.082 61.2481 114.079C61.2449 114.076 61.2432 114.072 61.2432 114.067V69.9995C61.2432 69.7234 61.467 69.4995 61.7432 69.4995H82.9694C83.2455 69.4995 83.4694 69.7234 83.4694 69.9995V116.883C83.4694 117.205 83.7699 117.443 84.0823 117.366C105.444 112.135 121.391 92.9125 121.621 70.0014C121.623 69.7253 121.847 69.4995 122.123 69.4995H143.845C143.847 69.4995 143.849 69.4973 143.849 69.4946Z" fill="#3C3C3C"/>
<path d="M143.255 62.3497C143.294 62.6472 143.061 62.9114 142.761 62.9114H121.283C121.041 62.9114 120.834 62.7364 120.789 62.4982C116.52 39.6539 96.4247 22.2929 72.353 22.2929C45.1779 22.2929 23.0739 44.3969 23.0739 71.5574C23.0739 91.5895 35.0917 108.876 52.3023 116.567C52.4835 116.648 52.6013 116.828 52.6013 117.026V139.616C52.6013 139.949 52.2815 140.188 51.9628 140.093C22.4298 131.299 0.847656 103.908 0.847656 71.5574C0.847656 32.137 32.9229 0.0617676 72.353 0.0617676C108.656 0.0617676 138.726 27.2545 143.255 62.3497Z" fill="#3C3C3C"/>
</svg>
