<svg width="144" height="142" viewBox="0 0 144 142" fill="none" xmlns="http://www.w3.org/2000/svg">
<path d="M143.502 69.5564C143.502 108.987 111.427 141.062 72.0062 141.062C68.3729 141.062 64.8165 140.795 61.3281 140.271C61.0846 140.234 60.9053 140.024 60.9053 139.778V114.153C60.9053 114.148 60.9035 114.144 60.9004 114.141C60.8973 114.138 60.8955 114.134 60.8955 114.129V70.0613C60.8955 69.7851 61.1194 69.5613 61.3955 69.5613H82.6217C82.8979 69.5613 83.1217 69.7851 83.1217 70.0613V116.945C83.1217 117.267 83.4223 117.504 83.7347 117.428C105.096 112.197 121.043 92.9743 121.273 70.0632C121.276 69.7871 121.499 69.5613 121.776 69.5613H143.497C143.5 69.5613 143.502 69.5591 143.502 69.5564Z" fill="#F7F7F7"/>
<path d="M142.908 62.4115C142.946 62.709 142.714 62.9732 142.414 62.9732H120.936C120.693 62.9732 120.486 62.7982 120.441 62.56C116.172 39.7157 96.077 22.3547 72.0054 22.3547C44.8302 22.3547 22.7262 44.4586 22.7262 71.6191C22.7262 91.6512 34.7441 108.937 51.9547 116.629C52.1358 116.71 52.2536 116.889 52.2536 117.088V139.678C52.2536 140.01 51.9338 140.25 51.6151 140.155C22.0821 131.361 0.5 103.97 0.5 71.6191C0.5 32.1987 32.5752 0.123535 72.0054 0.123535C108.308 0.123535 138.378 27.3162 142.908 62.4115Z" fill="#F7F7F7"/>
</svg>
