<svg width="253" height="88" viewBox="0 0 253 88" fill="none" xmlns="http://www.w3.org/2000/svg">
<path d="M8.23822 54.6192H0.678048C0.500857 54.6192 0.355469 54.474 0.355469 54.2971V4.30579C0.355469 4.12883 0.500857 3.98364 0.678048 3.98364H15.7984C15.9756 3.98364 16.121 4.12883 16.121 4.30579V37.5728C16.121 37.7815 16.3163 37.9358 16.5208 37.8904C31.7047 34.1926 43.0359 20.5582 43.1813 4.30579C43.1813 4.12883 43.3221 3.98818 43.4993 3.98818H58.6197C58.7969 3.98818 58.9468 4.13337 58.9468 4.31486C58.7696 32.0873 36.0936 54.6238 8.24276 54.6238L8.23822 54.6192Z" fill="#F20050"/>
<path d="M132.921 4.3194V19.4193C132.921 19.5963 132.781 19.7369 132.603 19.7369C113.585 19.9094 98.151 35.3224 97.9784 54.3107C97.9784 54.4876 97.8375 54.6283 97.6604 54.6283H82.5355C82.3583 54.6283 82.2129 54.4831 82.2129 54.3062V4.30579C82.2129 4.12883 82.3583 3.98364 82.5355 3.98364H97.6558C97.833 3.98364 97.9784 4.12883 97.9784 4.30579V17.2324C97.9784 17.5137 98.3101 17.6543 98.5191 17.4638C107.488 9.17425 119.459 4.07439 132.594 3.99272C132.772 3.99272 132.921 4.13791 132.921 4.3194Z" fill="#F7F7F7"/>
<path d="M77.3388 3.98364H62.223C62.0448 3.98364 61.9004 4.12787 61.9004 4.30579V54.3062C61.9004 54.4841 62.0448 54.6283 62.223 54.6283H77.3388C77.5169 54.6283 77.6614 54.4841 77.6614 54.3062V4.30579C77.6614 4.12787 77.5169 3.98364 77.3388 3.98364Z" fill="#F7F7F7"/>
<path d="M223.693 58.5077C207.542 58.5077 194.402 45.386 194.402 29.2561C194.402 13.1262 207.542 0 223.693 0C239.845 0 252.985 13.1217 252.985 29.2516C252.985 45.3815 239.845 58.5032 223.693 58.5032V58.5077ZM223.693 15.7397C216.233 15.7397 210.163 21.8014 210.163 29.2516C210.163 36.7017 216.233 42.7635 223.693 42.7635C231.154 42.7635 237.224 36.7017 237.224 29.2516C237.224 21.8014 231.154 15.7397 223.693 15.7397Z" fill="#F7F7F7"/>
<path d="M175.887 3.50741C175.709 3.50741 175.564 3.6526 175.564 3.82955L175.092 3.58454C171.007 1.4475 166.4 0.322266 161.77 0.322266C145.864 0.322266 132.92 13.2489 132.92 29.1337C132.92 45.0186 145.864 57.9407 161.77 57.9407C168.899 57.9407 173.624 55.5768 175.082 54.7283C175.296 54.6058 175.564 54.7601 175.564 55.0051V57.9679C175.564 65.418 169.758 71.7384 162.302 72.0197C154.846 72.301 148.327 66.3618 147.99 58.8844C147.981 58.712 147.845 58.5759 147.672 58.5759H133.252C133.07 58.5759 132.924 58.7256 132.924 58.9071C133.27 74.3609 145.869 86.852 161.384 87.0561C177.536 87.2694 190.616 73.9299 190.616 57.7955V3.82955C190.616 3.6526 190.471 3.50741 190.294 3.50741H175.887ZM161.77 42.9088C154.16 42.9088 147.972 36.7291 147.972 29.1337C147.972 21.5384 154.16 15.3541 161.77 15.3541C169.38 15.3541 175.564 21.5339 175.564 29.1337C175.564 36.7336 169.376 42.9088 161.77 42.9088Z" fill="#F7F7F7"/>
</svg>
