<?xml version="1.0" encoding="UTF-8"?>
<svg id="Livello_1" xmlns="http://www.w3.org/2000/svg" version="1.1" viewBox="0 0 253 88">
  <!-- Generator: Adobe Illustrator 29.1.0, SVG Export Plug-In . SVG Version: 2.1.0 Build 142)  -->
  <defs>
    <style>
      .st0 {
        fill: #f20050;
      }
    </style>
  </defs>
  <path class="st0" d="M8.2,54.6H.7c-.2,0-.3-.1-.3-.3V4.3c0-.2.1-.3.3-.3h15.1c.2,0,.3.1.3.3v33.3c0,.2.2.4.4.3,15.2-3.7,26.5-17.3,26.7-33.6,0-.2.1-.3.3-.3h15.1c.2,0,.3.1.3.3-.2,27.8-22.9,50.3-50.7,50.3h0Z"/>
  <path class="st0" d="M132.9,4.3v15.1c0,.2-.1.3-.3.3-19,.2-34.5,15.6-34.6,34.6,0,.2-.1.3-.3.3h-15.1c-.2,0-.3-.1-.3-.3V4.3c0-.2.1-.3.3-.3h15.1c.2,0,.3.1.3.3v12.9c0,.3.3.4.5.2,9-8.3,20.9-13.4,34.1-13.5.2,0,.3.1.3.3Z"/>
  <path class="st0" d="M77.3,4h-15.1c-.2,0-.3.1-.3.3v50c0,.2.1.3.3.3h15.1c.2,0,.3-.1.3-.3V4.3c0-.2-.1-.3-.3-.3Z"/>
  <path class="st0" d="M223.7,58.5c-16.2,0-29.3-13.1-29.3-29.3S207.5,0,223.7,0s29.3,13.1,29.3,29.3-13.1,29.3-29.3,29.3h0ZM223.7,15.7c-7.5,0-13.5,6.1-13.5,13.5s6.1,13.5,13.5,13.5,13.5-6.1,13.5-13.5-6.1-13.5-13.5-13.5Z"/>
  <path class="st0" d="M175.9,3.5c-.2,0-.3.1-.3.3l-.5-.2c-4.1-2.1-8.7-3.3-13.3-3.3-15.9,0-28.9,12.9-28.9,28.8s12.9,28.8,28.9,28.8,11.9-2.4,13.3-3.2c.2-.1.5,0,.5.3v3c0,7.5-5.8,13.8-13.3,14.1-7.5.3-14-5.7-14.3-13.1,0-.2-.1-.3-.3-.3h-14.4c-.2,0-.3.1-.3.3.3,15.5,12.9,27.9,28.5,28.1,16.2.2,29.2-13.1,29.2-29.3V3.8c0-.2-.1-.3-.3-.3h-14.4ZM161.8,42.9c-7.6,0-13.8-6.2-13.8-13.8s6.2-13.8,13.8-13.8,13.8,6.2,13.8,13.8-6.2,13.8-13.8,13.8Z"/>
</svg>