<svg width="254" height="88" viewBox="0 0 254 88" fill="none" xmlns="http://www.w3.org/2000/svg">
<path d="M8.56732 55.0899H1.00715C0.829958 55.0899 0.68457 54.9447 0.68457 54.7678V4.77649C0.68457 4.59954 0.829958 4.45435 1.00715 4.45435H16.1275C16.3047 4.45435 16.4501 4.59954 16.4501 4.77649V38.0435C16.4501 38.2522 16.6454 38.4065 16.8499 38.3611C32.0338 34.6633 43.365 21.0289 43.5104 4.77649C43.5104 4.59954 43.6512 4.45888 43.8284 4.45888H58.9488C59.126 4.45888 59.2759 4.60407 59.2759 4.78556C59.0987 32.558 36.4227 55.0945 8.57187 55.0945L8.56732 55.0899Z" fill="#F7F7F7"/>
<path d="M133.251 4.7901V19.89C133.251 20.067 133.11 20.2076 132.933 20.2076C113.914 20.3801 98.4801 35.7931 98.3075 54.7814C98.3075 54.9584 98.1667 55.099 97.9895 55.099H82.8646C82.6874 55.099 82.542 54.9538 82.542 54.7769V4.77649C82.542 4.59954 82.6874 4.45435 82.8646 4.45435H97.9849C98.1621 4.45435 98.3075 4.59954 98.3075 4.77649V17.7031C98.3075 17.9844 98.6392 18.125 98.8482 17.9345C107.817 9.64495 119.789 4.54509 132.923 4.46342C133.101 4.46342 133.251 4.60861 133.251 4.7901Z" fill="#F7F7F7"/>
<path d="M77.6679 4.45435H62.5521C62.3739 4.45435 62.2295 4.59857 62.2295 4.77649V54.7769C62.2295 54.9548 62.3739 55.099 62.5521 55.099H77.6679C77.846 55.099 77.9905 54.9548 77.9905 54.7769V4.77649C77.9905 4.59857 77.846 4.45435 77.6679 4.45435Z" fill="#F7F7F7"/>
<path d="M224.024 58.9784C207.872 58.9784 194.732 45.8567 194.732 29.7268C194.732 13.5969 207.872 0.470703 224.024 0.470703C240.175 0.470703 253.315 13.5924 253.315 29.7223C253.315 45.8522 240.175 58.9739 224.024 58.9739V58.9784ZM224.024 16.2104C216.563 16.2104 210.493 22.2721 210.493 29.7223C210.493 37.1724 216.563 43.2342 224.024 43.2342C231.484 43.2342 237.554 37.1724 237.554 29.7223C237.554 22.2721 231.484 16.2104 224.024 16.2104Z" fill="#F7F7F7"/>
<path d="M176.217 3.97811C176.039 3.97811 175.894 4.1233 175.894 4.30025L175.422 4.05524C171.337 1.9182 166.73 0.792969 162.1 0.792969C146.194 0.792969 133.25 13.7196 133.25 29.6044C133.25 45.4893 146.194 58.4114 162.1 58.4114C169.229 58.4114 173.954 56.0475 175.413 55.199C175.626 55.0765 175.894 55.2308 175.894 55.4758V58.4386C175.894 65.8887 170.088 72.2091 162.632 72.4904C155.176 72.7717 148.657 66.8325 148.32 59.3551C148.311 59.1827 148.175 59.0466 148.002 59.0466H133.582C133.4 59.0466 133.255 59.1963 133.255 59.3778C133.6 74.8316 146.199 87.3227 161.714 87.5268C177.866 87.7401 190.946 74.4006 190.946 58.2662V4.30025C190.946 4.1233 190.801 3.97811 190.624 3.97811H176.217ZM162.1 43.3795C154.49 43.3795 148.302 37.1998 148.302 29.6044C148.302 22.0091 154.49 15.8248 162.1 15.8248C169.711 15.8248 175.894 22.0046 175.894 29.6044C175.894 37.2043 169.706 43.3795 162.1 43.3795Z" fill="#F7F7F7"/>
</svg>
