<svg width="254" height="88" viewBox="0 0 254 88" fill="none" xmlns="http://www.w3.org/2000/svg">
<path d="M8.38373 54.6192H0.823556C0.646364 54.6192 0.500977 54.474 0.500977 54.2971V4.30579C0.500977 4.12883 0.646364 3.98364 0.823556 3.98364H15.9439C16.1211 3.98364 16.2665 4.12883 16.2665 4.30579V37.5728C16.2665 37.7815 16.4618 37.9358 16.6663 37.8904C31.8502 34.1926 43.1814 20.5582 43.3268 4.30579C43.3268 4.12883 43.4677 3.98818 43.6448 3.98818H58.7652C58.9424 3.98818 59.0923 4.13337 59.0923 4.31486C58.9151 32.0873 36.2391 54.6238 8.38827 54.6238L8.38373 54.6192Z" fill="#F20050"/>
<path d="M133.067 4.3194V19.4193C133.067 19.5963 132.926 19.7369 132.749 19.7369C113.73 19.9094 98.2965 35.3224 98.1239 54.3107C98.1239 54.4876 97.9831 54.6283 97.8059 54.6283H82.681C82.5038 54.6283 82.3584 54.4831 82.3584 54.3062V4.30579C82.3584 4.12883 82.5038 3.98364 82.681 3.98364H97.8013C97.9785 3.98364 98.1239 4.12883 98.1239 4.30579V17.2324C98.1239 17.5137 98.4556 17.6543 98.6646 17.4638C107.633 9.17425 119.605 4.07439 132.74 3.99272C132.917 3.99272 133.067 4.13791 133.067 4.3194Z" fill="#3C3C3C"/>
<path d="M77.4843 3.98364H62.3685C62.1903 3.98364 62.0459 4.12787 62.0459 4.30579V54.3062C62.0459 54.4841 62.1903 54.6283 62.3685 54.6283H77.4843C77.6624 54.6283 77.8069 54.4841 77.8069 54.3062V4.30579C77.8069 4.12787 77.6624 3.98364 77.4843 3.98364Z" fill="#3C3C3C"/>
<path d="M223.84 58.5077C207.688 58.5077 194.549 45.386 194.549 29.2561C194.549 13.1262 207.688 0 223.84 0C239.992 0 253.131 13.1217 253.131 29.2516C253.131 45.3815 239.992 58.5032 223.84 58.5032V58.5077ZM223.84 15.7397C216.38 15.7397 210.31 21.8014 210.31 29.2516C210.31 36.7017 216.38 42.7635 223.84 42.7635C231.3 42.7635 237.37 36.7017 237.37 29.2516C237.37 21.8014 231.3 15.7397 223.84 15.7397Z" fill="#3C3C3C"/>
<path d="M176.033 3.50741C175.856 3.50741 175.711 3.6526 175.711 3.82955L175.238 3.58454C171.154 1.4475 166.547 0.322266 161.917 0.322266C146.01 0.322266 133.066 13.2489 133.066 29.1337C133.066 45.0186 146.01 57.9407 161.917 57.9407C169.045 57.9407 173.77 55.5768 175.229 54.7283C175.442 54.6058 175.711 54.7601 175.711 55.0051V57.9679C175.711 65.418 169.904 71.7384 162.448 72.0197C154.993 72.301 148.473 66.3618 148.137 58.8844C148.128 58.712 147.991 58.5759 147.819 58.5759H133.398C133.216 58.5759 133.071 58.7256 133.071 58.9071C133.416 74.3609 146.015 86.852 161.531 87.0561C177.682 87.2694 190.763 73.9299 190.763 57.7955V3.82955C190.763 3.6526 190.617 3.50741 190.44 3.50741H176.033ZM161.917 42.9088C154.307 42.9088 148.119 36.7291 148.119 29.1337C148.119 21.5384 154.307 15.3541 161.917 15.3541C169.527 15.3541 175.711 21.5339 175.711 29.1337C175.711 36.7336 169.522 42.9088 161.917 42.9088Z" fill="#3C3C3C"/>
</svg>
