<svg width="1497" height="1773" viewBox="0 0 1497 1773" fill="none" xmlns="http://www.w3.org/2000/svg">
<path d="M1.2146 1771.7C1.2146 946.135 670.689 276.825 1496.46 276.825C1496.46 1102.39 826.982 1771.7 1.2146 1771.7ZM1.2146 1771.7L1496.46 1771.7M1.2146 1771.7L1.21477 1.4541M1.21477 1.4541H1496.46M1.21477 1.4541C826.982 1.4541 1496.46 670.764 1496.46 1496.33C670.689 1496.33 1.21477 827.018 1.21477 1.4541ZM1496.46 1.4541V1771.7M1496.46 1.4541C670.689 1.4541 1.21477 670.764 1.21477 1496.33C826.982 1496.33 1496.46 827.018 1496.46 1.4541ZM1496.46 1771.7C1496.46 946.135 826.982 276.825 1.2146 276.825C1.2146 1102.39 670.689 1771.7 1496.46 1771.7ZM1496.46 1024.26C1496.46 1437.06 1161.73 1771.7 748.835 1771.7C335.936 1771.7 1.2146 1437.06 1.2146 1024.26C1.2146 611.464 335.936 276.825 748.835 276.825C1161.73 276.825 1496.46 611.464 1496.46 1024.26ZM1496.46 748.891C1496.46 1161.69 1161.74 1496.33 748.836 1496.33C335.936 1496.33 1.21477 1161.69 1.21477 748.891C1.21477 336.093 335.936 1.4541 748.836 1.4541C1161.74 1.4541 1496.46 336.093 1496.46 748.891Z" stroke="#F7F7F7" stroke-miterlimit="10"/>
</svg>
